<svg id="visual" viewBox="0 0 960 540" width="960" height="540" xmlns="http://www.w3.org/2000/svg" xmlns:xlink="http://www.w3.org/1999/xlink" version="1.1"><path d="M940 540L936.8 495C933.7 450 927.3 360 925.7 270C924 180 927 90 928.5 45L930 0L960 0L960 45C960 90 960 180 960 270C960 360 960 450 960 495L960 540Z" fill="#2651e0"></path><path d="M940 540L924 495C908 450 876 360 869.5 270C863 180 882 90 891.5 45L901 0L931 0L929.5 45C928 90 925 180 926.7 270C928.3 360 934.7 450 937.8 495L941 540Z" fill="#4c5fe3"></path><path d="M882 540L870.8 495C859.7 450 837.3 360 824.5 270C811.7 180 808.3 90 806.7 45L805 0L902 0L892.5 45C883 90 864 180 870.5 270C877 360 909 450 925 495L941 540Z" fill="#666ee6"></path><path d="M853 540L846.7 495C840.3 450 827.7 360 816.5 270C805.3 180 795.7 90 790.8 45L786 0L806 0L807.7 45C809.3 90 812.7 180 825.5 270C838.3 360 860.7 450 871.8 495L883 540Z" fill="#7b7ce9"></path><path d="M345 540L399.3 495C453.7 450 562.3 360 631 270C699.7 180 728.3 90 742.7 45L757 0L787 0L791.8 45C796.7 90 806.3 180 817.5 270C828.7 360 841.3 450 847.7 495L854 540Z" fill="#8e8cec"></path><path d="M239 540L301.3 495C363.7 450 488.3 360 570 270C651.7 180 690.3 90 709.7 45L729 0L758 0L743.7 45C729.3 90 700.7 180 632 270C563.3 360 454.7 450 400.3 495L346 540Z" fill="#a09bef"></path><path d="M181 540L229 495C277 450 373 360 453 270C533 180 597 90 629 45L661 0L730 0L710.7 45C691.3 90 652.7 180 571 270C489.3 360 364.7 450 302.3 495L240 540Z" fill="#b0abf1"></path><path d="M105 540L156.2 495C207.3 450 309.7 360 391.2 270C472.7 180 533.3 90 563.7 45L594 0L662 0L630 45C598 90 534 180 454 270C374 360 278 450 230 495L182 540Z" fill="#c0bbf4"></path><path d="M76 540L84 495C92 450 108 360 138.3 270C168.7 180 213.3 90 235.7 45L258 0L595 0L564.7 45C534.3 90 473.7 180 392.2 270C310.7 360 208.3 450 157.2 495L106 540Z" fill="#d0cbf6"></path><path d="M66 540L74 495C82 450 98 360 118.8 270C139.7 180 165.3 90 178.2 45L191 0L259 0L236.7 45C214.3 90 169.7 180 139.3 270C109 360 93 450 85 495L77 540Z" fill="#dfdbf9"></path><path d="M9 540L12.2 495C15.3 450 21.7 360 31.2 270C40.7 180 53.3 90 59.7 45L66 0L192 0L179.2 45C166.3 90 140.7 180 119.8 270C99 360 83 450 75 495L67 540Z" fill="#eeecfb"></path><path d="M0 540L0 495C0 450 0 360 0 270C0 180 0 90 0 45L0 0L67 0L60.7 45C54.3 90 41.7 180 32.2 270C22.7 360 16.3 450 13.2 495L10 540Z" fill="#fdfdfd"></path></svg>