<svg id="visual" viewBox="0 0 900 600" width="900" height="600" xmlns="http://www.w3.org/2000/svg" xmlns:xlink="http://www.w3.org/1999/xlink" version="1.1"><path d="M863 600L863 600L863 568L845 568L845 537L845 537L845 505L872 505L872 474L872 474L872 442L863 442L863 411L872 411L872 379L863 379L863 347L854 347L854 316L863 316L863 284L845 284L845 253L845 253L845 221L845 221L845 189L845 189L845 158L854 158L854 126L854 126L854 95L863 95L863 63L845 63L845 32L863 32L863 0L900 0L900 32L900 32L900 63L900 63L900 95L900 95L900 126L900 126L900 158L900 158L900 189L900 189L900 221L900 221L900 253L900 253L900 284L900 284L900 316L900 316L900 347L900 347L900 379L900 379L900 411L900 411L900 442L900 442L900 474L900 474L900 505L900 505L900 537L900 537L900 568L900 568L900 600L900 600Z" fill="#251a16"></path><path d="M773 600L809 600L809 568L800 568L800 537L791 537L791 505L791 505L791 474L818 474L818 442L818 442L818 411L782 411L782 379L827 379L827 347L764 347L764 316L800 316L800 284L800 284L800 253L764 253L764 221L800 221L800 189L764 189L764 158L800 158L800 126L755 126L755 95L818 95L818 63L809 63L809 32L809 32L809 0L864 0L864 32L846 32L846 63L864 63L864 95L855 95L855 126L855 126L855 158L846 158L846 189L846 189L846 221L846 221L846 253L846 253L846 284L864 284L864 316L855 316L855 347L864 347L864 379L873 379L873 411L864 411L864 442L873 442L873 474L873 474L873 505L846 505L846 537L846 537L846 568L864 568L864 600L864 600Z" fill="#362b27"></path><path d="M737 600L755 600L755 568L773 568L773 537L755 537L755 505L764 505L764 474L773 474L773 442L782 442L782 411L746 411L746 379L800 379L800 347L728 347L728 316L764 316L764 284L773 284L773 253L701 253L701 221L755 221L755 189L719 189L719 158L755 158L755 126L701 126L701 95L791 95L791 63L746 63L746 32L746 32L746 0L810 0L810 32L810 32L810 63L819 63L819 95L756 95L756 126L801 126L801 158L765 158L765 189L801 189L801 221L765 221L765 253L801 253L801 284L801 284L801 316L765 316L765 347L828 347L828 379L783 379L783 411L819 411L819 442L819 442L819 474L792 474L792 505L792 505L792 537L801 537L801 568L810 568L810 600L774 600Z" fill="#473d39"></path><path d="M638 600L692 600L692 568L656 568L656 537L674 537L674 505L656 505L656 474L692 474L692 442L674 442L674 411L638 411L638 379L710 379L710 347L665 347L665 316L692 316L692 284L701 284L701 253L656 253L656 221L647 221L647 189L674 189L674 158L683 158L683 126L620 126L620 95L710 95L710 63L638 63L638 32L674 32L674 0L747 0L747 32L747 32L747 63L792 63L792 95L702 95L702 126L756 126L756 158L720 158L720 189L756 189L756 221L702 221L702 253L774 253L774 284L765 284L765 316L729 316L729 347L801 347L801 379L747 379L747 411L783 411L783 442L774 442L774 474L765 474L765 505L756 505L756 537L774 537L774 568L756 568L756 600L738 600Z" fill="#59504c"></path><path d="M611 600L656 600L656 568L638 568L638 537L647 537L647 505L629 505L629 474L647 474L647 442L638 442L638 411L593 411L593 379L683 379L683 347L638 347L638 316L647 316L647 284L665 284L665 253L611 253L611 221L629 221L629 189L647 189L647 158L647 158L647 126L593 126L593 95L683 95L683 63L611 63L611 32L629 32L629 0L675 0L675 32L639 32L639 63L711 63L711 95L621 95L621 126L684 126L684 158L675 158L675 189L648 189L648 221L657 221L657 253L702 253L702 284L693 284L693 316L666 316L666 347L711 347L711 379L639 379L639 411L675 411L675 442L693 442L693 474L657 474L657 505L675 505L675 537L657 537L657 568L693 568L693 600L639 600Z" fill="#6c6360"></path><path d="M584 600L620 600L620 568L620 568L620 537L620 537L620 505L593 505L593 474L629 474L629 442L611 442L611 411L548 411L548 379L647 379L647 347L611 347L611 316L611 316L611 284L620 284L620 253L575 253L575 221L611 221L611 189L629 189L629 158L611 158L611 126L557 126L557 95L647 95L647 63L566 63L566 32L584 32L584 0L630 0L630 32L612 32L612 63L684 63L684 95L594 95L594 126L648 126L648 158L648 158L648 189L630 189L630 221L612 221L612 253L666 253L666 284L648 284L648 316L639 316L639 347L684 347L684 379L594 379L594 411L639 411L639 442L648 442L648 474L630 474L630 505L648 505L648 537L639 537L639 568L657 568L657 600L612 600Z" fill="#7f7874"></path><path d="M530 600L548 600L548 568L557 568L557 537L548 537L548 505L530 505L530 474L593 474L593 442L539 442L539 411L485 411L485 379L566 379L566 347L539 347L539 316L530 316L530 284L575 284L575 253L503 253L503 221L530 221L530 189L566 189L566 158L566 158L566 126L503 126L503 95L602 95L602 63L512 63L512 32L539 32L539 0L585 0L585 32L567 32L567 63L648 63L648 95L558 95L558 126L612 126L612 158L630 158L630 189L612 189L612 221L576 221L576 253L621 253L621 284L612 284L612 316L612 316L612 347L648 347L648 379L549 379L549 411L612 411L612 442L630 442L630 474L594 474L594 505L621 505L621 537L621 537L621 568L621 568L621 600L585 600Z" fill="#938d8a"></path><path d="M359 600L413 600L413 568L314 568L314 537L323 537L323 505L314 505L314 474L305 474L305 442L314 442L314 411L260 411L260 379L413 379L413 347L323 347L323 316L350 316L350 284L440 284L440 253L350 253L350 221L395 221L395 189L296 189L296 158L368 158L368 126L287 126L287 95L467 95L467 63L395 63L395 32L314 32L314 0L540 0L540 32L513 32L513 63L603 63L603 95L504 95L504 126L567 126L567 158L567 158L567 189L531 189L531 221L504 221L504 253L576 253L576 284L531 284L531 316L540 316L540 347L567 347L567 379L486 379L486 411L540 411L540 442L594 442L594 474L531 474L531 505L549 505L549 537L558 537L558 568L549 568L549 600L531 600Z" fill="#a7a2a0"></path><path d="M260 600L323 600L323 568L197 568L197 537L206 537L206 505L224 505L224 474L224 474L224 442L242 442L242 411L206 411L206 379L269 379L269 347L242 347L242 316L269 316L269 284L350 284L350 253L215 253L215 221L332 221L332 189L233 189L233 158L296 158L296 126L206 126L206 95L314 95L314 63L260 63L260 32L197 32L197 0L315 0L315 32L396 32L396 63L468 63L468 95L288 95L288 126L369 126L369 158L297 158L297 189L396 189L396 221L351 221L351 253L441 253L441 284L351 284L351 316L324 316L324 347L414 347L414 379L261 379L261 411L315 411L315 442L306 442L306 474L315 474L315 505L324 505L324 537L315 537L315 568L414 568L414 600L360 600Z" fill="#bcb8b6"></path><path d="M215 600L296 600L296 568L161 568L161 537L179 537L179 505L170 505L170 474L188 474L188 442L206 442L206 411L179 411L179 379L224 379L224 347L215 347L215 316L233 316L233 284L296 284L296 253L170 253L170 221L305 221L305 189L179 189L179 158L251 158L251 126L170 126L170 95L287 95L287 63L206 63L206 32L170 32L170 0L198 0L198 32L261 32L261 63L315 63L315 95L207 95L207 126L297 126L297 158L234 158L234 189L333 189L333 221L216 221L216 253L351 253L351 284L270 284L270 316L243 316L243 347L270 347L270 379L207 379L207 411L243 411L243 442L225 442L225 474L225 474L225 505L207 505L207 537L198 537L198 568L324 568L324 600L261 600Z" fill="#d1cfcd"></path><path d="M152 600L233 600L233 568L125 568L125 537L107 537L107 505L125 505L125 474L143 474L143 442L134 442L134 411L125 411L125 379L152 379L152 347L170 347L170 316L179 316L179 284L251 284L251 253L143 253L143 221L269 221L269 189L143 189L143 158L215 158L215 126L143 126L143 95L224 95L224 63L170 63L170 32L116 32L116 0L171 0L171 32L207 32L207 63L288 63L288 95L171 95L171 126L252 126L252 158L180 158L180 189L306 189L306 221L171 221L171 253L297 253L297 284L234 284L234 316L216 316L216 347L225 347L225 379L180 379L180 411L207 411L207 442L189 442L189 474L171 474L171 505L180 505L180 537L162 537L162 568L297 568L297 600L216 600Z" fill="#e7e6e5"></path><path d="M0 600L0 600L0 568L0 568L0 537L0 537L0 505L0 505L0 474L0 474L0 442L0 442L0 411L0 411L0 379L0 379L0 347L0 347L0 316L0 316L0 284L0 284L0 253L0 253L0 221L0 221L0 189L0 189L0 158L0 158L0 126L0 126L0 95L0 95L0 63L0 63L0 32L0 32L0 0L117 0L117 32L171 32L171 63L225 63L225 95L144 95L144 126L216 126L216 158L144 158L144 189L270 189L270 221L144 221L144 253L252 253L252 284L180 284L180 316L171 316L171 347L153 347L153 379L126 379L126 411L135 411L135 442L144 442L144 474L126 474L126 505L108 505L108 537L126 537L126 568L234 568L234 600L153 600Z" fill="#fdfdfd"></path></svg>